<svg width="102" height="50" viewBox="0 0 102 50" fill="none" xmlns="http://www.w3.org/2000/svg">
<path d="M17 24.0585C17 23.0494 17 22.5448 17.2217 22.1141C17.4433 21.6833 17.8539 21.3901 18.675 20.8035L22.8375 17.8303C23.3989 17.4294 23.6795 17.2289 24 17.2289C24.3205 17.2289 24.6011 17.4294 25.1625 17.8303L29.325 20.8035C30.1461 21.3901 30.5567 21.6833 30.7783 22.1141C31 22.5448 31 23.0494 31 24.0585V29C31 29.9428 31 30.4142 30.7071 30.7071C30.4142 31 29.9428 31 29 31H19C18.0572 31 17.5858 31 17.2929 30.7071C17 30.4142 17 29.9428 17 29V24.0585Z" fill="#00853F" fill-opacity="0.1"/>
<path d="M15 22.3866C15 22.6535 15 22.7869 15.0841 22.8281C15.1682 22.8692 15.2735 22.7873 15.4842 22.6234L22.7721 16.955C23.362 16.4962 23.6569 16.2669 24 16.2669C24.3431 16.2669 24.638 16.4962 25.2279 16.955L32.5158 22.6234C32.7265 22.7873 32.8318 22.8692 32.9159 22.8281C33 22.7869 33 22.6535 33 22.3866V21.9782C33 21.4978 33 21.2576 32.8983 21.0497C32.7966 20.8418 32.607 20.6944 32.2279 20.3995L25.2279 14.955C24.638 14.4962 24.3431 14.2669 24 14.2669C23.6569 14.2669 23.362 14.4962 22.7721 14.955L15.7721 20.3995C15.393 20.6944 15.2034 20.8418 15.1017 21.0497C15 21.2576 15 21.4978 15 21.9782V22.3866Z" fill="#00853F"/>
<path d="M24.5 25H23.5C22.3954 25 21.5 25.8954 21.5 27V30.85C21.5 30.9328 21.5672 31 21.65 31H26.35C26.4328 31 26.5 30.9328 26.5 30.85V27C26.5 25.8954 25.6046 25 24.5 25Z" fill="#00853F"/>
<rect x="28" y="15" width="2" height="4" rx="0.5" fill="#00853F"/>
<path d="M12.398 33.804L12.8585 34.6917L12.8585 34.6917L12.398 33.804ZM11.602 33.804L11.1415 34.6917L11.1415 34.6917L11.602 33.804ZM18 25C18 27.1458 16.9079 28.9159 15.545 30.2906C14.183 31.6644 12.6342 32.555 11.9376 32.9163L12.8585 34.6917C13.6448 34.2838 15.397 33.2805 16.9653 31.6987C18.5326 30.1178 20 27.8706 20 25H18ZM12 19C15.3137 19 18 21.6863 18 25H20C20 20.5817 16.4183 17 12 17V19ZM6 25C6 21.6863 8.68629 19 12 19V17C7.58172 17 4 20.5817 4 25H6ZM12.0624 32.9163C11.3658 32.555 9.81702 31.6644 8.45503 30.2906C7.09211 28.9159 6 27.1458 6 25H4C4 27.8706 5.46741 30.1178 7.03474 31.6987C8.60299 33.2805 10.3552 34.2838 11.1415 34.6917L12.0624 32.9163ZM11.9376 32.9163C11.9514 32.9091 11.9733 32.9023 12 32.9023C12.0267 32.9023 12.0486 32.9091 12.0624 32.9163L11.1415 34.6917C11.6831 34.9726 12.3169 34.9726 12.8585 34.6917L11.9376 32.9163ZM14 25C14 26.1046 13.1046 27 12 27V29C14.2091 29 16 27.2091 16 25H14ZM12 23C13.1046 23 14 23.8954 14 25H16C16 22.7909 14.2091 21 12 21V23ZM10 25C10 23.8954 10.8954 23 12 23V21C9.79086 21 8 22.7909 8 25H10ZM12 27C10.8954 27 10 26.1046 10 25H8C8 27.2091 9.79086 29 12 29V27Z" fill="#00853F"/>
<path d="M19.7942 33.5C20.5841 33.9561 21 34.4734 21 35C21 35.5266 20.5841 36.0439 19.7942 36.5C19.0043 36.9561 17.8682 37.3348 16.5 37.5981C15.1318 37.8614 13.5798 38 12 38C10.4202 38 8.86817 37.8614 7.5 37.5981C6.13183 37.3348 4.99569 36.9561 4.20577 36.5C3.41586 36.0439 3 35.5266 3 35C3 34.4734 3.41586 33.9561 4.20577 33.5" stroke="#00853F" stroke-width="2" stroke-linecap="round"/>
<path d="M46.8984 31.5C46.6317 31.5 46.425 31.4267 46.2784 31.28C46.1317 31.12 46.0584 30.9067 46.0584 30.64V18.16C46.0584 17.88 46.125 17.6667 46.2584 17.52C46.405 17.3733 46.6117 17.3 46.8784 17.3C47.145 17.3 47.345 17.3733 47.4784 17.52C47.625 17.6667 47.6984 17.88 47.6984 18.16V30.06H54.2584C54.4984 30.06 54.685 30.1267 54.8184 30.26C54.9517 30.38 55.0184 30.5533 55.0184 30.78C55.0184 31.0067 54.9517 31.1867 54.8184 31.32C54.685 31.44 54.4984 31.5 54.2584 31.5H46.8984ZM59.7577 31.68C59.0911 31.68 58.4911 31.5533 57.9577 31.3C57.4377 31.0333 57.0244 30.6733 56.7177 30.22C56.4111 29.7667 56.2577 29.26 56.2577 28.7C56.2577 27.98 56.4377 27.4133 56.7977 27C57.1711 26.5867 57.7777 26.2933 58.6177 26.12C59.4711 25.9467 60.6311 25.86 62.0977 25.86H62.9977V26.92H62.1177C61.0377 26.92 60.1844 26.9733 59.5577 27.08C58.9444 27.1733 58.5111 27.34 58.2577 27.58C58.0177 27.82 57.8977 28.16 57.8977 28.6C57.8977 29.1467 58.0844 29.5933 58.4577 29.94C58.8444 30.2867 59.3644 30.46 60.0177 30.46C60.5511 30.46 61.0177 30.3333 61.4177 30.08C61.8311 29.8267 62.1511 29.48 62.3777 29.04C62.6177 28.6 62.7377 28.0933 62.7377 27.52V25.24C62.7377 24.4133 62.5711 23.82 62.2377 23.46C61.9044 23.0867 61.3577 22.9 60.5977 22.9C60.1311 22.9 59.6644 22.96 59.1977 23.08C58.7311 23.2 58.2377 23.3933 57.7177 23.66C57.5311 23.7533 57.3711 23.7867 57.2377 23.76C57.1044 23.72 56.9977 23.6467 56.9177 23.54C56.8377 23.4333 56.7911 23.3133 56.7777 23.18C56.7644 23.0333 56.7911 22.8933 56.8577 22.76C56.9377 22.6267 57.0577 22.52 57.2177 22.44C57.8044 22.1467 58.3844 21.9333 58.9577 21.8C59.5311 21.6667 60.0777 21.6 60.5977 21.6C61.4377 21.6 62.1311 21.74 62.6777 22.02C63.2244 22.2867 63.6311 22.7 63.8977 23.26C64.1644 23.8067 64.2977 24.5133 64.2977 25.38V30.8C64.2977 31.0667 64.2311 31.2733 64.0977 31.42C63.9777 31.5667 63.7977 31.64 63.5577 31.64C63.3044 31.64 63.1111 31.5667 62.9777 31.42C62.8444 31.2733 62.7777 31.0667 62.7777 30.8V29.24H62.9577C62.8511 29.7467 62.6444 30.18 62.3377 30.54C62.0444 30.9 61.6777 31.18 61.2377 31.38C60.7977 31.58 60.3044 31.68 59.7577 31.68ZM71.2032 31.68C70.4432 31.68 69.8032 31.5467 69.2832 31.28C68.7765 31 68.3965 30.6 68.1432 30.08C67.8899 29.5467 67.7632 28.9 67.7632 28.14V23.04H66.4232C66.1965 23.04 66.0232 22.9867 65.9032 22.88C65.7832 22.76 65.7232 22.6 65.7232 22.4C65.7232 22.2 65.7832 22.0467 65.9032 21.94C66.0232 21.8333 66.1965 21.78 66.4232 21.78H67.7632V19.48C67.7632 19.2133 67.8365 19.0133 67.9832 18.88C68.1299 18.7333 68.3299 18.66 68.5832 18.66C68.8365 18.66 69.0299 18.7333 69.1632 18.88C69.3099 19.0133 69.3832 19.2133 69.3832 19.48V21.78H71.9032C72.1299 21.78 72.3032 21.8333 72.4232 21.94C72.5432 22.0467 72.6032 22.2 72.6032 22.4C72.6032 22.6 72.5432 22.76 72.4232 22.88C72.3032 22.9867 72.1299 23.04 71.9032 23.04H69.3832V27.98C69.3832 28.74 69.5432 29.32 69.8632 29.72C70.1832 30.1067 70.7032 30.3 71.4232 30.3C71.6765 30.3 71.8899 30.2733 72.0632 30.22C72.2499 30.1667 72.4032 30.14 72.5232 30.14C72.6432 30.1267 72.7432 30.1667 72.8232 30.26C72.9032 30.3533 72.9432 30.5133 72.9432 30.74C72.9432 30.9 72.9099 31.0467 72.8432 31.18C72.7899 31.3133 72.6899 31.4067 72.5432 31.46C72.3832 31.5133 72.1699 31.56 71.9032 31.6C71.6499 31.6533 71.4165 31.68 71.2032 31.68ZM78.5777 31.68C77.5511 31.68 76.6644 31.48 75.9177 31.08C75.1844 30.6667 74.6111 30.0867 74.1977 29.34C73.7977 28.5933 73.5977 27.7 73.5977 26.66C73.5977 25.6467 73.7977 24.7667 74.1977 24.02C74.5977 23.26 75.1444 22.6667 75.8377 22.24C76.5444 21.8133 77.3577 21.6 78.2777 21.6C78.9311 21.6 79.5177 21.7133 80.0377 21.94C80.5577 22.1533 80.9977 22.4667 81.3577 22.88C81.7311 23.2933 82.0111 23.7933 82.1977 24.38C82.3977 24.9667 82.4977 25.6267 82.4977 26.36C82.4977 26.5733 82.4377 26.7333 82.3177 26.84C82.1977 26.9333 82.0244 26.98 81.7977 26.98H74.8377V25.92H81.4177L81.0977 26.18C81.0977 25.46 80.9911 24.8533 80.7777 24.36C80.5644 23.8533 80.2511 23.4667 79.8377 23.2C79.4377 22.9333 78.9311 22.8 78.3177 22.8C77.6377 22.8 77.0577 22.96 76.5777 23.28C76.1111 23.5867 75.7577 24.02 75.5177 24.58C75.2777 25.1267 75.1577 25.7667 75.1577 26.5V26.62C75.1577 27.8467 75.4511 28.78 76.0377 29.42C76.6377 30.06 77.4844 30.38 78.5777 30.38C79.0311 30.38 79.4777 30.32 79.9177 30.2C80.3711 30.08 80.8111 29.88 81.2377 29.6C81.4244 29.48 81.5911 29.4267 81.7377 29.44C81.8977 29.44 82.0244 29.4867 82.1177 29.58C82.2111 29.66 82.2711 29.7667 82.2977 29.9C82.3377 30.02 82.3244 30.1533 82.2577 30.3C82.2044 30.4467 82.0911 30.5733 81.9177 30.68C81.4777 31 80.9577 31.2467 80.3577 31.42C79.7577 31.5933 79.1644 31.68 78.5777 31.68ZM85.6423 31.64C85.3756 31.64 85.1756 31.5667 85.0423 31.42C84.9089 31.2733 84.8423 31.0667 84.8423 30.8V22.46C84.8423 22.1933 84.9089 21.9933 85.0423 21.86C85.1756 21.7133 85.3689 21.64 85.6223 21.64C85.8756 21.64 86.0689 21.7133 86.2023 21.86C86.3489 21.9933 86.4223 22.1933 86.4223 22.46V24.18L86.2023 23.94C86.4823 23.1667 86.9356 22.5867 87.5623 22.2C88.2023 21.8 88.9356 21.6 89.7623 21.6C90.5356 21.6 91.1756 21.74 91.6823 22.02C92.2023 22.3 92.5889 22.7267 92.8423 23.3C93.0956 23.86 93.2223 24.5733 93.2223 25.44V30.8C93.2223 31.0667 93.1489 31.2733 93.0023 31.42C92.8689 31.5667 92.6756 31.64 92.4223 31.64C92.1556 31.64 91.9489 31.5667 91.8023 31.42C91.6689 31.2733 91.6023 31.0667 91.6023 30.8V25.54C91.6023 24.6333 91.4223 23.9733 91.0623 23.56C90.7156 23.1333 90.1556 22.92 89.3823 22.92C88.4889 22.92 87.7756 23.2 87.2423 23.76C86.7223 24.3067 86.4623 25.04 86.4623 25.96V30.8C86.4623 31.36 86.1889 31.64 85.6423 31.64ZM100.109 31.68C99.3495 31.68 98.7095 31.5467 98.1895 31.28C97.6828 31 97.3028 30.6 97.0495 30.08C96.7961 29.5467 96.6695 28.9 96.6695 28.14V23.04H95.3295C95.1028 23.04 94.9295 22.9867 94.8095 22.88C94.6895 22.76 94.6295 22.6 94.6295 22.4C94.6295 22.2 94.6895 22.0467 94.8095 21.94C94.9295 21.8333 95.1028 21.78 95.3295 21.78H96.6695V19.48C96.6695 19.2133 96.7428 19.0133 96.8895 18.88C97.0361 18.7333 97.2361 18.66 97.4895 18.66C97.7428 18.66 97.9361 18.7333 98.0695 18.88C98.2161 19.0133 98.2895 19.2133 98.2895 19.48V21.78H100.809C101.036 21.78 101.209 21.8333 101.329 21.94C101.449 22.0467 101.509 22.2 101.509 22.4C101.509 22.6 101.449 22.76 101.329 22.88C101.209 22.9867 101.036 23.04 100.809 23.04H98.2895V27.98C98.2895 28.74 98.4495 29.32 98.7695 29.72C99.0895 30.1067 99.6095 30.3 100.329 30.3C100.583 30.3 100.796 30.2733 100.969 30.22C101.156 30.1667 101.309 30.14 101.429 30.14C101.549 30.1267 101.649 30.1667 101.729 30.26C101.809 30.3533 101.849 30.5133 101.849 30.74C101.849 30.9 101.816 31.0467 101.749 31.18C101.696 31.3133 101.596 31.4067 101.449 31.46C101.289 31.5133 101.076 31.56 100.809 31.6C100.556 31.6533 100.323 31.68 100.109 31.68Z" fill="#00853F"/>
</svg>
